<?xml version="1.0" standalone="no"?>
<!DOCTYPE svg PUBLIC "-//W3C//DTD SVG 20010904//EN"
 "http://www.w3.org/TR/2001/REC-SVG-20010904/DTD/svg10.dtd">
<svg version="1.0" xmlns="http://www.w3.org/2000/svg"
 width="2048.000000pt" height="2048.000000pt" viewBox="0 0 2048.000000 2048.000000"
 preserveAspectRatio="xMidYMid meet">

<g transform="translate(0.000000,2048.000000) scale(0.100000,-0.100000)"
fill="#c8edf0" stroke="none">
<path d="M3500 17041 c0 -182 3 -241 13 -244 10 -4 10 -6 0 -6 -7 -1 -13 -9
-13 -18 0 -15 2 -16 10 -3 6 10 10 -87 10 -283 0 -171 4 -306 10 -316 5 -10
11 -146 12 -302 l3 -284 120 -60 c237 -118 523 -293 810 -495 450 -316 960
-788 1417 -1310 273 -313 674 -861 971 -1327 48 -76 112 -176 142 -223 29 -47
82 -134 116 -195 34 -60 70 -121 80 -135 56 -82 288 -521 452 -855 233 -473
337 -708 576 -1295 39 -96 76 -184 81 -195 24 -53 70 -164 70 -170 0 -3 43
-115 96 -248 53 -133 107 -271 121 -307 14 -36 39 -99 55 -140 17 -41 46 -122
64 -180 19 -58 38 -114 44 -125 19 -42 44 -104 90 -235 27 -74 64 -175 83
-225 36 -95 64 -175 203 -560 47 -132 108 -301 136 -375 28 -74 72 -198 99
-275 26 -77 63 -180 82 -230 19 -49 55 -146 81 -215 26 -69 54 -139 61 -156 8
-17 37 -91 64 -165 49 -136 106 -281 121 -310 5 -9 33 -77 64 -152 31 -74 64
-151 74 -169 9 -18 44 -96 77 -173 82 -193 247 -523 312 -624 8 -12 29 -48 45
-80 42 -76 147 -219 233 -314 161 -180 367 -291 694 -377 63 -16 116 -28 116
-27 4 6 51 108 108 237 36 80 77 171 91 202 14 31 26 60 26 63 0 4 38 85 85
181 47 97 85 178 85 180 0 3 29 64 65 135 35 72 67 140 71 152 8 26 73 176
115 264 16 35 29 65 29 68 0 3 15 38 34 78 19 40 50 110 69 157 49 120 142
342 160 382 9 18 52 122 97 232 45 109 85 206 90 215 5 9 21 45 36 81 14 36
32 79 39 95 14 30 65 150 92 215 8 19 21 49 28 65 45 99 65 147 65 156 0 5 6
20 14 32 8 12 35 72 59 132 25 61 53 124 61 140 9 17 16 33 16 37 0 3 23 54
50 112 28 58 50 109 50 112 0 4 22 52 49 108 27 56 60 126 74 156 58 127 102
221 144 310 126 269 439 903 463 940 10 14 41 70 70 125 70 133 121 228 130
240 4 6 23 39 42 75 38 70 40 73 145 255 72 125 236 391 283 460 15 22 88 132
163 245 170 256 241 357 342 489 44 57 89 115 100 130 68 90 304 376 419 506
323 366 685 700 1111 1026 221 169 479 341 750 499 88 51 176 103 195 115 19
12 56 31 81 42 l47 21 6 88 c9 125 24 538 36 949 5 193 13 416 16 498 4 81 4
147 1 147 -7 0 -208 -91 -317 -143 -167 -81 -322 -166 -575 -315 -99 -58 -351
-222 -479 -312 -153 -108 -475 -364 -622 -496 -169 -151 -595 -582 -745 -754
-302 -345 -621 -766 -844 -1115 -32 -49 -81 -126 -110 -170 -29 -44 -76 -120
-106 -170 -29 -49 -60 -101 -68 -115 -9 -14 -21 -34 -27 -45 -6 -11 -35 -60
-64 -110 -54 -92 -119 -206 -173 -305 -54 -100 -342 -674 -371 -740 -16 -36
-46 -101 -67 -145 -32 -69 -68 -149 -136 -305 -9 -19 -27 -60 -40 -90 -14 -30
-31 -68 -38 -85 -22 -49 -65 -156 -86 -214 -10 -30 -23 -59 -28 -65 -4 -6 -18
-38 -30 -71 -13 -33 -26 -64 -31 -70 -4 -5 -24 -55 -45 -110 -20 -55 -46 -120
-57 -145 -32 -72 -35 -80 -73 -185 -40 -111 -78 -208 -106 -272 -11 -24 -19
-47 -19 -53 0 -6 -4 -18 -9 -28 -6 -9 -24 -55 -41 -102 -17 -47 -35 -94 -39
-105 -23 -54 -85 -225 -129 -350 -27 -77 -56 -156 -64 -175 -21 -47 -49 -121
-102 -270 -24 -69 -61 -170 -81 -225 -20 -55 -59 -167 -87 -250 -28 -82 -75
-212 -104 -288 -30 -77 -54 -143 -54 -149 0 -5 -7 -26 -16 -46 -9 -21 -20 -46
-25 -57 -16 -39 -81 -211 -115 -305 -19 -52 -39 -104 -44 -115 -5 -11 -25 -60
-44 -110 -63 -167 -108 -280 -136 -340 -15 -33 -43 -99 -61 -147 -19 -49 -37
-88 -41 -88 -13 0 -55 65 -113 175 -133 252 -296 578 -350 700 -31 72 -79 175
-105 230 -26 55 -51 111 -55 125 -4 14 -18 49 -31 78 -13 29 -24 55 -24 58 0
7 -27 70 -41 96 -14 28 -209 516 -224 562 -7 22 -31 86 -53 141 -103 262 -172
446 -172 458 0 7 -4 17 -9 23 -5 5 -32 74 -60 154 -27 80 -71 204 -96 275 -25
72 -59 171 -76 220 -37 110 -77 220 -94 260 -7 17 -38 102 -68 190 -31 88 -64
184 -75 213 -11 28 -18 52 -16 52 3 0 -2 12 -10 28 -7 15 -28 70 -46 122 -41
123 -89 260 -100 285 -5 11 -20 52 -34 90 -13 39 -47 131 -75 205 -27 74 -84
227 -125 340 -67 183 -137 371 -197 530 -12 30 -38 98 -59 150 -21 52 -54 138
-75 190 -21 52 -44 109 -51 125 -19 44 -60 143 -119 290 -87 214 -169 401
-248 565 -99 206 -147 309 -147 317 0 23 -400 789 -478 915 -21 35 -72 119
-112 188 -40 69 -100 169 -134 223 -34 53 -74 119 -90 145 -73 116 -185 284
-245 367 -35 50 -78 110 -95 135 -96 143 -461 608 -596 760 -456 513 -882 916
-1340 1266 -170 130 -491 349 -670 457 -52 32 -102 62 -110 67 -8 5 -87 48
-175 96 -88 48 -179 97 -201 110 -99 54 -523 244 -544 244 -6 0 -10 -85 -10
-239z"/>
<path d="M16950 17273 c-159 -56 -701 -325 -910 -451 -429 -258 -839 -553
-1142 -819 -195 -173 -255 -228 -423 -392 -207 -202 -411 -418 -546 -576 -51
-60 -120 -142 -154 -181 -191 -225 -510 -656 -690 -934 -220 -340 -200 -308
-297 -470 -73 -122 -151 -259 -278 -490 -66 -118 -275 -528 -324 -635 -15 -33
-85 -185 -157 -338 -71 -152 -129 -279 -129 -282 0 -3 -16 -39 -35 -81 -19
-41 -35 -78 -35 -81 0 -2 -13 -33 -29 -68 -17 -35 -36 -83 -45 -107 -8 -24
-40 -103 -71 -177 -31 -74 -84 -207 -117 -295 -33 -89 -72 -192 -88 -231 -15
-38 -40 -104 -55 -145 -14 -41 -46 -124 -70 -185 -53 -133 -160 -416 -219
-580 -24 -66 -64 -172 -89 -235 -25 -63 -71 -187 -101 -275 -31 -88 -60 -169
-66 -180 -5 -11 -18 -45 -29 -75 -11 -30 -38 -104 -61 -165 -22 -60 -47 -130
-56 -155 -8 -25 -23 -63 -33 -85 -10 -22 -35 -89 -55 -150 -21 -60 -43 -123
-51 -140 -7 -16 -21 -53 -31 -82 l-18 -52 27 -78 c74 -215 118 -338 159 -438
25 -60 55 -139 68 -175 12 -36 28 -78 35 -95 7 -16 29 -73 50 -125 20 -52 41
-104 46 -115 5 -11 27 -69 49 -130 22 -60 44 -119 50 -130 5 -11 20 -47 34
-80 13 -33 28 -60 32 -60 5 0 14 19 20 42 11 37 29 82 81 200 7 18 38 99 67
180 30 81 60 162 66 178 23 55 37 89 70 175 18 47 48 122 66 167 19 45 34 86
34 93 0 6 6 21 14 33 8 12 42 99 76 192 33 94 67 184 74 200 20 45 126 324
168 440 6 17 15 34 20 39 4 6 8 16 8 23 0 7 9 32 19 56 11 23 39 94 62 157 23
63 65 174 94 245 29 72 58 148 65 170 7 22 16 45 20 50 11 13 87 197 107 255
8 25 18 54 23 65 5 11 27 65 50 120 23 55 48 114 56 130 7 17 32 75 54 130 60
147 74 179 80 185 3 3 10 19 17 35 22 58 86 201 140 315 31 63 63 136 73 161
28 71 347 698 429 844 231 409 395 675 658 1067 72 108 147 216 165 241 18 24
69 95 113 157 108 152 388 505 505 636 25 28 88 100 140 160 127 145 515 533
665 664 157 137 380 323 437 363 25 18 106 75 179 128 261 186 567 373 822
500 l107 53 0 144 c0 80 4 242 10 361 5 119 12 322 15 451 3 129 7 312 10 405
3 94 6 207 8 253 2 81 0 87 -33 75z"/>
<path d="M2785 14722 c3 -48 10 -231 16 -407 17 -542 28 -853 35 -1022 l7
-162 31 -13 c63 -25 337 -187 554 -327 199 -128 315 -208 467 -321 122 -92
187 -144 434 -348 150 -123 606 -580 721 -722 25 -30 61 -73 82 -95 20 -22 47
-53 59 -70 13 -16 26 -32 29 -35 7 -6 132 -158 201 -247 73 -91 280 -378 408
-563 145 -211 161 -235 203 -300 66 -103 248 -401 276 -450 14 -25 51 -88 84
-141 32 -54 58 -102 58 -108 0 -6 5 -11 10 -11 6 0 10 -6 10 -13 0 -7 27 -62
61 -122 123 -222 207 -382 453 -871 75 -149 136 -273 136 -276 0 -3 31 -70 68
-149 38 -79 88 -187 112 -239 24 -52 52 -109 61 -127 10 -18 34 -70 53 -117
19 -46 48 -113 64 -147 17 -35 55 -122 87 -194 31 -71 70 -158 86 -193 16 -34
29 -69 29 -77 0 -8 4 -15 9 -15 5 0 11 -10 14 -22 5 -23 101 -250 137 -324 11
-23 20 -45 20 -50 0 -5 14 -36 30 -69 16 -33 30 -63 30 -67 0 -4 12 -33 26
-65 14 -32 31 -71 39 -88 7 -16 24 -55 38 -85 13 -30 45 -107 70 -170 37 -95
91 -222 147 -345 5 -11 34 -81 66 -155 31 -74 62 -148 69 -165 7 -16 32 -75
56 -130 86 -204 152 -353 204 -460 30 -60 78 -164 108 -230 30 -66 73 -159 96
-207 23 -48 41 -90 41 -92 0 -6 51 -118 100 -221 21 -44 48 -109 61 -145 12
-36 25 -69 29 -73 4 -5 122 49 261 119 140 70 275 138 302 151 26 13 47 28 47
32 0 10 -29 77 -71 167 -16 34 -29 66 -29 71 0 4 -11 29 -25 55 -14 26 -34 71
-46 100 -11 29 -33 81 -49 115 -16 34 -32 73 -36 87 -3 14 -10 26 -14 26 -4 0
-20 35 -35 78 -16 42 -41 105 -57 140 -15 34 -28 66 -28 70 0 5 -15 44 -33 88
-19 43 -62 151 -97 239 -34 88 -73 183 -86 212 -13 28 -24 56 -24 60 0 8 -79
211 -100 258 -5 11 -30 79 -56 150 -25 72 -64 175 -86 230 -54 131 -135 353
-239 650 -21 61 -57 160 -79 220 -44 117 -113 307 -150 415 -13 36 -27 74 -32
85 -5 11 -33 88 -62 170 -29 83 -63 177 -75 210 -12 33 -28 71 -35 85 -7 14
-21 50 -31 80 -10 30 -21 59 -26 64 -5 6 -9 16 -9 24 0 14 -57 165 -86 229 -7
17 -14 37 -14 45 0 8 -4 18 -8 24 -5 5 -22 45 -37 89 -16 44 -41 109 -57 143
-15 35 -28 72 -28 82 0 10 -6 23 -13 29 -8 6 -19 30 -26 53 -7 24 -19 57 -26
73 -8 17 -41 98 -73 180 -33 83 -71 176 -86 207 -14 31 -26 59 -26 62 0 3 -16
38 -35 77 -19 40 -35 76 -35 80 0 4 -18 46 -40 93 -22 47 -40 88 -40 90 0 23
-398 836 -518 1056 -43 80 -92 170 -108 200 -55 100 -202 347 -247 417 -25 37
-100 156 -169 263 -532 837 -1184 1578 -1888 2147 -78 62 -296 226 -467 348
-328 236 -960 587 -1224 680 l-40 14 6 -87z"/>
</g>
</svg>
